<svg xmlns="http://www.w3.org/2000/svg" fill="none" viewBox="3 6 26 20.01">
    <path d="M29.0002 15.9998C29.0009 16.1314 28.9757 16.2619 28.926 16.3837C28.8762 16.5056 28.8029 16.6164 28.7102 16.7098L19.7102 25.7098C19.5219 25.8981 19.2665 26.0039 19.0002 26.0039C18.7339 26.0039 18.4785 25.8981 18.2902 25.7098C18.1019 25.5215 17.9961 25.2661 17.9961 24.9998C17.9961 24.7335 18.1019 24.4781 18.2902 24.2898L26.5902 15.9998L18.2902 7.70981C18.1969 7.61658 18.123 7.50589 18.0725 7.38406C18.0221 7.26224 17.9961 7.13167 17.9961 6.99981C17.9961 6.86796 18.0221 6.73739 18.0725 6.61557C18.123 6.49374 18.1969 6.38305 18.2902 6.28982C18.3834 6.19658 18.4941 6.12262 18.6159 6.07215C18.7378 6.02169 18.8683 5.99572 19.0002 5.99572C19.132 5.99572 19.2626 6.02169 19.3844 6.07215C19.5063 6.12262 19.6169 6.19658 19.7102 6.28982L28.7102 15.2898C28.8029 15.3833 28.8762 15.4941 28.926 15.6159C28.9757 15.7377 29.0009 15.8682 29.0002 15.9998Z" fill="currentColor"/>
    <path d="M29 16C29 16.2652 28.8946 16.5196 28.7071 16.7071C28.5196 16.8946 28.2652 17 28 17L4 17C3.73478 17 3.48043 16.8946 3.29289 16.7071C3.10536 16.5196 3 16.2652 3 16C3 15.7348 3.10536 15.4804 3.29289 15.2929C3.48043 15.1054 3.73478 15 4 15L28 15C28.2652 15 28.5196 15.1054 28.7071 15.2929C28.8946 15.4804 29 15.7348 29 16Z" fill="currentColor"/>
</svg>