<svg version="1.2" xmlns="http://www.w3.org/2000/svg" viewBox="0 0 1000 1000" width="1000" height="1000">
	<title>WA-svg</title>
	<style>
		.s0 { fill: #25d366 } 
		.s1 { fill: #ffffff } 
	</style>
	<g>
		<path class="s0" d="m500 1000c-276.1 0-500-223.9-500-500 0-276.1 223.9-500 500-500 276.1 0 500 223.9 500 500 0 276.1-223.9 500-500 500z"/>
		<g>
			<g id="WA_Logo">
				<g>
					<path fill-rule="evenodd" class="s1" d="m830 499.7c-0.1 181.2-147.5 328.6-328.6 328.6h-0.1c-55 0-109-13.8-157-40l-174.2 45.7 46.6-170.3c-28.8-49.8-43.9-106.4-43.9-164.3 0-181.2 147.5-328.6 328.6-328.6 87.9 0.1 170.5 34.3 232.5 96.4 62.1 62.1 96.2 144.7 96.1 232.5zm-55.4-0.1c0.1-72.9-28.3-141.6-79.9-193.2-51.6-51.6-120.1-80.1-193.1-80.1-150.7 0-273.2 122.5-273.3 273.1 0 51.7 14.5 101.9 41.8 145.4l6.5 10.3-27.6 100.8 103.4-27.1 10 5.9c41.9 24.9 90 38.1 139 38.1h0.1c150.5 0 273.1-122.5 273.1-273.2zm-107.6 78.2c2 3.4 2 19.8-4.8 39-6.8 19.1-39.6 36.6-55.4 39-14.1 2.1-32 3-51.7-3.3-11.9-3.8-27.2-8.8-46.8-17.3-82.4-35.6-136.2-118.5-140.3-124-4.1-5.4-33.5-44.5-33.5-84.9 0-40.4 21.2-60.3 28.7-68.5 7.5-8.2 16.4-10.3 21.9-10.3 5.4 0 10.9 0.1 15.7 0.3 5.1 0.3 11.8-1.9 18.5 14.1 6.8 16.5 23.2 56.9 25.3 61 2.1 4.1 3.4 8.9 0.7 14.4-2.7 5.5-4.1 8.9-8.2 13.7-4.1 4.8-8.6 10.7-12.3 14.4-4.1 4.1-8.4 8.6-3.6 16.8 4.8 8.2 21.3 35.1 45.7 56.9 31.3 28 57.8 36.7 66 40.8 8.2 4.1 13 3.4 17.8-2.1 4.8-5.5 20.5-24 26-32.2 5.5-8.2 11-6.8 18.5-4.1 7.5 2.7 47.9 22.6 56.1 26.7 8.2 4.2 13.7 6.2 15.7 9.6z"/>
				</g>
			</g>
		</g>
	</g>
</svg>